<svg width="41" height="41" viewBox="0 0 41 41" fill="none" xmlns="http://www.w3.org/2000/svg">
<rect width="41" height="41" rx="11" fill="white"/>
<path d="M15.0607 12.9393L14 11.8787L11.8787 14L12.9393 15.0607L15.0607 12.9393ZM26.9747 28.4747C27.8031 28.4747 28.4747 27.8031 28.4747 26.9747V13.4747C28.4747 12.6463 27.8031 11.9747 26.9747 11.9747C26.1463 11.9747 25.4747 12.6463 25.4747 13.4747V25.4747H13.4747C12.6463 25.4747 11.9747 26.1463 11.9747 26.9747C11.9747 27.8031 12.6463 28.4747 13.4747 28.4747H26.9747ZM12.9393 15.0607L25.914 28.0353L28.0353 25.914L15.0607 12.9393L12.9393 15.0607Z" fill="black"/>
</svg>
