<svg width="24" height="28" viewBox="0 0 24 28" fill="none" xmlns="http://www.w3.org/2000/svg">
<path fill-rule="evenodd" clip-rule="evenodd" d="M12.3963 27.7119C14.4725 26.6763 24 21.4359 24 12.4781C24 5.85261 18.6274 0.481567 12 0.481567C5.37258 0.481567 0 5.85261 0 12.4781C0 21.4359 9.5275 26.6763 11.6037 27.7119C11.8585 27.839 12.1415 27.839 12.3963 27.7119ZM11.9944 17.6194C14.8347 17.6194 17.1373 15.3175 17.1373 12.478C17.1373 9.63853 14.8347 7.33665 11.9944 7.33665C9.1541 7.33665 6.85156 9.63853 6.85156 12.478C6.85156 15.3175 9.1541 17.6194 11.9944 17.6194Z" fill="white"/>
</svg>
